# Blender v2.80 (sub 75) OBJ File: 'barrel2.blend'
# www.blender.org
mtllib barrel2.mtl
o Circle
v 0.500000 0.000000 0.000000
v 0.353553 0.353553 0.000000
v -0.000000 0.500000 0.000000
v -0.353553 0.353553 0.000000
v -0.500000 -0.000000 0.000000
v 0.353553 -0.353553 0.000000
v 0.000000 -0.500000 0.000000
v -0.353553 -0.353553 0.000000
v 0.353553 0.353553 0.083247
v 0.500000 0.000000 0.083247
v -0.000000 0.500000 0.083247
v -0.353553 0.353553 0.083247
v -0.500000 -0.000000 0.083247
v 0.000000 -0.500000 0.083247
v -0.353553 -0.353553 0.083247
v 0.353553 -0.353553 0.083247
v 0.316333 0.311548 0.102060
v 0.448764 -0.008169 0.102060
v -0.003384 0.443979 0.102060
v -0.323101 0.311548 0.102060
v -0.455532 -0.008169 0.102060
v -0.003384 -0.460317 0.102060
v -0.323100 -0.327886 0.102060
v 0.316333 -0.327886 0.102060
v 0.502042 -0.015063 1.420377
v 0.355595 -0.368617 1.420377
v 0.002042 -0.515064 1.420378
v -0.351511 -0.368617 1.420377
v -0.497958 -0.015063 1.420377
v -0.351511 0.338490 1.420377
v 0.355595 0.338490 1.420377
v 0.002042 0.484937 1.420377
v 0.355595 -0.368617 1.337131
v 0.502042 -0.015064 1.337130
v 0.002042 -0.515064 1.337131
v -0.351511 -0.368617 1.337131
v -0.497958 -0.015063 1.337130
v -0.351511 0.338490 1.337130
v 0.355595 0.338490 1.337130
v 0.002042 0.484937 1.337130
v 0.318375 -0.326611 1.318318
v 0.450806 -0.006895 1.318318
v -0.001342 -0.459043 1.318318
v -0.321058 -0.326611 1.318318
v -0.453490 -0.006895 1.318318
v -0.321058 0.312822 1.318317
v 0.318375 0.312822 1.318317
v -0.001342 0.445253 1.318317
v 0.289224 -0.304688 1.424007
v 0.409020 -0.015475 1.424007
v 0.000011 -0.424484 1.424007
v -0.289202 -0.304688 1.424007
v -0.408998 -0.015475 1.424007
v -0.289202 0.273738 1.424007
v 0.289224 0.273738 1.424007
v 0.000011 0.393534 1.424007
v 0.236788 -0.262607 1.377396
v 0.338009 -0.018238 1.377396
v -0.007581 -0.363828 1.377396
v -0.251950 -0.262607 1.377396
v -0.353171 -0.018238 1.377396
v -0.251950 0.226131 1.377396
v 0.236788 0.226131 1.377396
v -0.007581 0.327352 1.377396
vt 0.043306 0.140660
vt 0.083662 0.010012
vt 0.101290 0.026187
vt 0.061874 0.147648
vt 0.012446 0.135413
vt 0.051354 0.000130
vt 0.000130 0.271768
vt 0.030678 0.272529
vt 0.021783 0.650291
vt 0.010939 0.529460
vt 0.039037 0.526949
vt 0.049265 0.646621
vt 0.119990 0.999870
vt 0.069580 0.887714
vt 0.094091 0.878776
vt 0.144388 0.988904
vt 0.001985 0.404567
vt 0.031315 0.403101
vt 0.039550 0.770783
vt 0.066458 0.764924
vt 0.046948 0.276441
vt 0.051183 0.524843
vt 0.063807 0.641934
vt 0.111662 0.871654
vt 0.159885 0.974568
vt 0.045861 0.403852
vt 0.082428 0.758908
vt 0.516196 0.677415
vt 0.538101 0.672439
vt 0.563601 0.756154
vt 0.540845 0.765073
vt 0.512245 0.215772
vt 0.491947 0.317143
vt 0.474530 0.313164
vt 0.498421 0.209594
vt 0.536292 0.221292
vt 0.515520 0.320260
vt 0.577879 0.106092
vt 0.546304 0.095963
vt 0.503463 0.590991
vt 0.495054 0.682783
vt 0.482185 0.593495
vt 0.504083 0.414665
vt 0.481534 0.413720
vt 0.520213 0.773044
vt 0.500054 0.504520
vt 0.478468 0.504943
vt 0.586881 0.866629
vt 0.559307 0.877253
vt 0.530789 0.094825
vt 0.484911 0.685919
vt 0.471148 0.596888
vt 0.466637 0.413648
vt 0.510037 0.775158
vt 0.465573 0.507338
vt 0.542862 0.874243
vt 0.523061 0.589061
vt 0.522344 0.504617
vt 0.542837 0.505852
vt 0.542757 0.586278
vt 0.527834 0.416701
vt 0.609257 0.841899
vt 0.563672 0.229298
vt 0.540649 0.324641
vt 0.602628 0.128944
vt 0.590506 0.238947
vt 0.565260 0.331606
vt 0.627159 0.148403
vt 0.558240 0.665555
vt 0.550079 0.421168
vt 0.584475 0.745150
vt 0.627159 0.820927
vt 0.726588 0.086358
vt 0.884102 0.086358
vt 0.995481 0.197737
vt 0.995481 0.355250
vt 0.884102 0.466629
vt 0.726588 0.466629
vt 0.615209 0.355250
vt 0.615209 0.197737
vt 0.717985 0.864608
vt 0.606249 0.752871
vt 0.606249 0.594853
vt 0.717985 0.483117
vt 0.876004 0.483116
vt 0.987740 0.594853
vt 0.987740 0.752872
vt 0.876004 0.864608
vn 0.3227 0.1337 0.9370
vn 0.9239 0.3827 0.0000
vn 0.9239 -0.3827 0.0000
vn -0.9239 -0.3827 0.0000
vn 0.3827 0.9239 0.0000
vn -0.3827 -0.9239 0.0000
vn -0.3827 0.9239 0.0000
vn 0.3827 -0.9239 0.0000
vn -0.9239 0.3827 0.0000
vn 0.3618 -0.1498 0.9202
vn -0.4103 -0.1699 0.8960
vn 0.1279 0.3088 0.9425
vn -0.1797 -0.4339 0.8829
vn -0.1337 0.3227 0.9370
vn 0.1699 -0.4103 0.8960
vn -0.3618 0.1498 0.9202
vn -0.0166 0.0400 0.9991
vn 0.3227 -0.1337 -0.9370
vn 0.3618 0.1498 -0.9202
vn -0.4103 0.1699 -0.8960
vn 0.1279 -0.3088 -0.9425
vn -0.1797 0.4339 -0.8829
vn -0.1337 -0.3227 -0.9370
vn 0.1699 0.4103 -0.8960
vn -0.3618 -0.1498 -0.9202
vn -0.3827 -0.9239 0.0016
vn -0.9239 -0.3827 0.0020
vn -0.9239 0.3827 0.0012
vn -0.3827 0.9239 -0.0003
vn 0.3827 0.9239 -0.0016
vn 0.9239 0.3827 -0.0020
vn 0.9239 -0.3827 -0.0012
vn 0.3827 -0.9239 0.0003
vn 0.6265 0.2595 0.7350
vn -0.0167 -0.0404 0.9990
vn 0.0163 0.0393 0.9991
vn -0.0408 -0.0169 0.9990
vn 0.0391 -0.0162 0.9991
vn 0.0389 0.0161 0.9991
vn -0.0407 0.0169 0.9990
vn 0.0164 -0.0397 0.9991
vn -0.5409 0.2240 0.8107
vn -0.5294 -0.2193 0.8195
vn 0.6125 -0.2537 0.7486
vn -0.2374 0.5731 0.7844
vn 0.2391 -0.5773 0.7807
vn 0.2524 0.6093 0.7517
vn -0.2252 -0.5436 0.8086
vn 0.0000 0.0000 -1.0000
vn -0.0000 0.0000 1.0000
usemtl Barrel_material
s off
f 10/1/1 9/2/1 17/3/1 18/4/1
f 1/5/2 2/6/2 9/2/2 10/1/2
f 6/7/3 1/5/3 10/1/3 16/8/3
f 5/9/4 8/10/4 15/11/4 13/12/4
f 2/13/5 3/14/5 11/15/5 9/16/5
f 8/10/6 7/17/6 14/18/6 15/11/6
f 3/14/7 4/19/7 12/20/7 11/15/7
f 7/17/8 6/7/8 16/8/8 14/18/8
f 4/19/9 5/9/9 13/12/9 12/20/9
f 16/8/10 10/1/10 18/4/10 24/21/10
f 13/12/11 15/11/11 23/22/11 21/23/11
f 9/16/12 11/15/12 19/24/12 17/25/12
f 15/11/13 14/18/13 22/26/13 23/22/13
f 11/15/14 12/20/14 20/27/14 19/24/14
f 14/18/15 16/8/15 24/21/15 22/26/15
f 12/20/16 13/12/16 21/23/16 20/27/16
f 30/28/17 54/29/17 56/30/17 32/31/17
f 34/32/18 33/33/18 41/34/18 42/35/18
f 25/36/3 26/37/3 33/33/3 34/32/3
f 31/38/2 25/36/2 34/32/2 39/39/2
f 29/40/9 30/28/9 38/41/9 37/42/9
f 26/37/8 27/43/8 35/44/8 33/33/8
f 30/28/7 32/31/7 40/45/7 38/41/7
f 27/43/6 28/46/6 36/47/6 35/44/6
f 32/31/5 31/48/5 39/49/5 40/45/5
f 28/46/4 29/40/4 37/42/4 36/47/4
f 39/39/19 34/32/19 42/35/19 47/50/19
f 37/42/20 38/41/20 46/51/20 45/52/20
f 33/33/21 35/44/21 43/53/21 41/34/21
f 38/41/22 40/45/22 48/54/22 46/51/22
f 35/44/23 36/47/23 44/55/23 43/53/23
f 40/45/24 39/49/24 47/56/24 48/54/24
f 36/47/25 37/42/25 45/52/25 44/55/25
f 22/26/26 43/53/26 44/55/26 23/22/26
f 44/55/27 45/52/27 21/23/27 23/22/27
f 20/27/28 21/23/28 45/52/28 46/51/28
f 20/27/29 46/51/29 48/54/29 19/24/29
f 19/24/30 48/54/30 47/56/30 17/25/30
f 17/3/31 47/50/31 42/35/31 18/4/31
f 18/4/32 42/35/32 41/34/32 24/21/32
f 24/21/33 41/34/33 43/53/33 22/26/33
f 53/57/34 52/58/34 60/59/34 61/60/34
f 28/46/35 27/43/35 51/61/35 52/58/35
f 31/48/36 32/31/36 56/30/36 55/62/36
f 29/40/37 28/46/37 52/58/37 53/57/37
f 26/37/38 25/36/38 50/63/38 49/64/38
f 25/36/39 31/38/39 55/65/39 50/63/39
f 30/28/40 29/40/40 53/57/40 54/29/40
f 27/43/41 26/37/41 49/64/41 51/61/41
f 49/64/42 50/63/42 58/66/42 57/67/42
f 50/63/43 55/65/43 63/68/43 58/66/43
f 54/29/44 53/57/44 61/60/44 62/69/44
f 51/61/45 49/64/45 57/67/45 59/70/45
f 56/30/46 54/29/46 62/69/46 64/71/46
f 52/58/47 51/61/47 59/70/47 60/59/47
f 55/62/48 56/30/48 64/71/48 63/72/48
f 2/73/49 1/74/49 6/75/49 7/76/49 8/77/49 5/78/49 4/79/49 3/80/49
f 57/81/50 58/82/50 63/83/50 64/84/50 62/85/50 61/86/50 60/87/50 59/88/50
o Plane
v -5.000000 5.000000 0.000000
v -5.000000 -5.000000 0.000000
v 5.000000 5.000000 0.000000
v 5.000000 -5.000000 0.000000
vt 0.000000 0.000000
vt 1.000000 0.000000
vt 1.000000 1.000000
vt 0.000000 1.000000
vn 0.0000 0.0000 1.0000
usemtl None
s off
f 65/89/51 66/90/51 68/91/51 67/92/51
